#!OML:ASF E:\Mandelcareful walks\Project 1\Capture day 1\Session 1\Subject1.ASF
:FULLY-SPECIFIED
:DEGREES
284
root 13.0559 11.4537 -0.686597 -23.0562 -76.1188 54.0486
lowerback 37.6085 2.2674 12.9968
upperback 12.163 6.2625 4.15151
thorax -3.88346 2.67851 -4.33327
lowerneck -29.4193 -13.9365 -14.29
upperneck 20.0746 -15.5002 7.64415
head 13.2529 -6.90485 1.99781
rclavicle -6.99722e-014 -1.43125e-014
rhumerus 65.8231 -22.3876 -79.118
rradius 21.8969
rwrist -16.2577
rhand -15.5433 -37.2213
rfingers 7.12502
rthumb 10.6408 -66.9319
lclavicle -6.99722e-014 -1.43125e-014
lhumerus -8.45062 -39.8269 36.7501
lradius 121.134
lwrist 56.6365
lhand -12.5864 -9.98186
lfingers 7.12502
lthumb 13.4919 19.5611
rfemur -104.95 -44.6721 19.8478
rtibia 106.714
rfoot -25.8624 3.53182
rtoes -8.82564
lfemur -99.4344 3.26516 -25.4204
ltibia 106.29
lfoot -30.6248 2.07218
ltoes -7.8925
285
root 13.0649 11.4007 -0.636968 -25.1481 -76.8784 56.5313
lowerback 37.7639 2.44309 12.319
upperback 11.881 6.30114 3.86956
thorax -4.30857 2.66197 -4.33676
lowerneck -29.916 -13.7341 -13.9826
upperneck 20.3077 -15.2964 7.70213
head 13.3925 -6.76553 2.00435
rclavicle -1.27222e-014 3.02153e-014
rhumerus 65.4492 -21.6342 -79.5025
rradius 21.854
rwrist -15.992
rhand -15.5573 -35.99
rfingers 7.12502
rthumb 10.6273 -65.7013
lclavicle -1.27222e-014 3.02153e-014
lhumerus -3.43708 -39.0766 34.773
lradius 120.493
lwrist 54.8746
lhand -16.6052 -9.39497
lfingers 7.12502
lthumb 9.61628 20.3656
rfemur -106.094 -44.0106 20.132
rtibia 106.904
rfoot -25.5384 3.80985
rtoes -8.75114
lfemur -100.198 4.00611 -25.8222
ltibia 106.942
lfoot -30.9523 2.08147
ltoes -7.47244
286
root 13.075 11.3494 -0.58084 -26.9977 -77.5683 58.7963
lowerback 37.742 2.4923 11.8237
upperback 11.6559 6.20707 3.51496
thorax -4.59362 2.60325 -4.45187
lowerneck -30.5591 -13.4105 -13.3492
upperneck 20.6464 -14.9567 7.41607
head 13.5229 -6.58552 1.85833
rclavicle 3.49861e-014 2.22639e-014
rhumerus 65.1596 -20.7462 -79.8104
rradius 22.0415
rwrist -16.2296
rhand -15.6081 -35.8681
rfingers 7.12502
rthumb 10.5782 -65.5819
lclavicle 3.49861e-014 2.22639e-014
lhumerus 1.68578 -38.1745 32.7364
lradius 119.534
lwrist 54.1798
lhand -20.4916 -8.84474
lfingers 7.12502
lthumb 5.86525 21.0541
rfemur -107.315 -43.4657 20.5529
rtibia 107.073
rfoot -25.1842 3.90993
rtoes -8.70223
lfemur -101.081 4.58239 -26.1721
ltibia 107.601
lfoot -31.1493 2.31303
ltoes -7.53049
287
root 13.0835 11.3059 -0.519669 -27.922 -78.3159 60.0518
lowerback 37.7468 2.41397 11.6313
upperback 11.4196 6.06328 3.18204
thorax -4.86741 2.52427 -4.67498
lowerneck -31.0118 -12.9826 -12.761
upperneck 20.9307 -14.4982 7.19286
head 13.5997 -6.35689 1.77877
rclavicle -6.99722e-014 -2.62396e-014
rhumerus 65.07 -19.8184 -80.1263
rradius 21.8568
rwrist -16.5027
rhand -15.4543 -35.883
rfingers 7.12502
rthumb 10.7265 -65.5892
lclavicle -6.99722e-014 -2.62396e-014
lhumerus 6.72723 -37.1738 30.7564
lradius 118.317
lwrist 53.9658
lhand -24.1944 -8.89974
lfingers 7.12502
lthumb 2.2896 21.0677
rfemur -108.315 -42.9062 21.1335
rtibia 107.189
rfoot -24.923 3.54984
rtoes -9.07722
lfemur -102.013 5.09442 -26.2619
ltibia 108.307
lfoot -31.265 2.71279
ltoes -8.11138
288
root 13.0934 11.2602 -0.461426 -29.2029 -79.0678 61.5339
lowerback 37.9503 2.3377 11.2954
upperback 11.1443 5.89991 2.88988
thorax -5.27645 2.42049 -4.78536
lowerneck -31.3761 -12.5757 -12.4824
upperneck 21.2815 -14.0835 7.41373
head 13.7685 -6.10818 1.9098
rclavicle 1.08139e-013 -2.22639e-014
rhumerus 64.8819 -18.6985 -80.4176
rradius 21.7614
rwrist -16.7082
rhand -15.3712 -36.1216
rfingers 7.12502
rthumb 10.8067 -65.8236
lclavicle 1.08139e-013 -2.22639e-014
lhumerus 11.271 -36.0597 29.1872
lradius 116.972
lwrist 53.5283
lhand -27.3194 -8.76036
lfingers 7.12502
lthumb -0.728603 21.2181
rfemur -109.116 -42.3137 21.5414
rtibia 107.348
rfoot -24.6883 3.18677
rtoes -9.58405
lfemur -102.761 5.68912 -26.3751
ltibia 109.041
lfoot -31.4935 2.97277
ltoes -8.37646
